<svg xmlns="http://www.w3.org/2000/svg" viewBox="0 0 960 700" width="960" height="700">
  <style>
    text { font-family: -apple-system, BlinkMacSystemFont, 'Segoe UI', 'Helvetica Neue', Arial, 'PingFang SC', sans-serif; }
  </style>
  <defs>
    <filter id="shadow">
      <feDropShadow dx="0" dy="1" stdDeviation="3" flood-color="#00000010"/>
    </filter>
  </defs>
  <rect width="960" height="700" fill="#f8f6f3"/>
  <text x="480" y="38" text-anchor="middle" fill="#1a1a1a" font-size="20" font-weight="700">Feature Comparison: OneTab + Tab Out → SmartTab</text>
  <text x="480" y="58" text-anchor="middle" fill="#6a6a6a" font-size="13">功能对比与合并方案</text>
  <rect x="40" y="80" width="192" height="50" rx="8" fill="#e8e6e3" stroke="#4a4a4a" stroke-width="1.5" filter="url(#shadow)"/>
  <text x="136" y="110" text-anchor="middle" fill="#1a1a1a" font-size="15" font-weight="600">Feature</text>
  <rect x="260" y="80" width="252" height="50" rx="8" fill="#a8c5e6" stroke="#4a4a4a" stroke-width="1.5" filter="url(#shadow)"/>
  <text x="386" y="110" text-anchor="middle" fill="#1a1a1a" font-size="15" font-weight="600">OneTab</text>
  <rect x="540" y="80" width="172" height="50" rx="8" fill="#9dd4c7" stroke="#4a4a4a" stroke-width="1.5" filter="url(#shadow)"/>
  <text x="626" y="110" text-anchor="middle" fill="#1a1a1a" font-size="15" font-weight="600">Tab Out</text>
  <rect x="740" y="80" width="192" height="50" rx="8" fill="#f4e4c1" stroke="#4a4a4a" stroke-width="1.5" filter="url(#shadow)"/>
  <text x="836" y="110" text-anchor="middle" fill="#1a1a1a" font-size="15" font-weight="600">SmartTab (Merged)</text>
  <rect x="40" y="136" width="192" height="38" rx="4" fill="#ffffff"/>
  <text x="50" y="162" fill="#1a1a1a" font-size="13" font-weight="500">一键合并标签</text>
  <rect x="260" y="136" width="252" height="38" rx="4" fill="#dcfce7"/>
  <text x="386" y="162" text-anchor="middle" fill="#16a34a" font-size="14" font-weight="600">✓</text>
  <rect x="540" y="136" width="172" height="38" rx="4" fill="#f9fafb"/>
  <text x="626" y="162" text-anchor="middle" fill="#d1d5db" font-size="14">—</text>
  <rect x="740" y="136" width="192" height="38" rx="4" fill="#dcfce7"/>
  <text x="836" y="162" text-anchor="middle" fill="#16a34a" font-size="14" font-weight="600">✓</text>
  <rect x="40" y="178" width="192" height="38" rx="4" fill="#f8f6f3"/>
  <text x="50" y="204" fill="#1a1a1a" font-size="13" font-weight="500">按域名自动分类</text>
  <rect x="260" y="178" width="252" height="38" rx="4" fill="#f9fafb"/>
  <text x="386" y="204" text-anchor="middle" fill="#d1d5db" font-size="14">—</text>
  <rect x="540" y="178" width="172" height="38" rx="4" fill="#dcfce7"/>
  <text x="626" y="204" text-anchor="middle" fill="#16a34a" font-size="14" font-weight="600">✓</text>
  <rect x="740" y="178" width="192" height="38" rx="4" fill="#dcfce7"/>
  <text x="836" y="204" text-anchor="middle" fill="#16a34a" font-size="14" font-weight="600">✓</text>
  <rect x="40" y="220" width="192" height="38" rx="4" fill="#ffffff"/>
  <text x="50" y="246" fill="#1a1a1a" font-size="13" font-weight="500">关键词/摘要总结</text>
  <rect x="260" y="220" width="252" height="38" rx="4" fill="#f9fafb"/>
  <text x="386" y="246" text-anchor="middle" fill="#d1d5db" font-size="14">—</text>
  <rect x="540" y="220" width="172" height="38" rx="4" fill="#f9fafb"/>
  <text x="626" y="246" text-anchor="middle" fill="#d1d5db" font-size="14">—</text>
  <rect x="740" y="220" width="192" height="38" rx="4" fill="#fef9c3"/>
  <text x="836" y="246" text-anchor="middle" fill="#ca8a04" font-size="12" font-weight="700">✓ NEW</text>
  <rect x="40" y="262" width="192" height="38" rx="4" fill="#f8f6f3"/>
  <text x="50" y="288" fill="#1a1a1a" font-size="13" font-weight="500">竖向标签排布</text>
  <rect x="260" y="262" width="252" height="38" rx="4" fill="#f9fafb"/>
  <text x="386" y="288" text-anchor="middle" fill="#d1d5db" font-size="14">—</text>
  <rect x="540" y="262" width="172" height="38" rx="4" fill="#f9fafb"/>
  <text x="626" y="288" text-anchor="middle" fill="#d1d5db" font-size="14">—</text>
  <rect x="740" y="262" width="192" height="38" rx="4" fill="#fef9c3"/>
  <text x="836" y="288" text-anchor="middle" fill="#ca8a04" font-size="12" font-weight="700">✓ NEW</text>
  <rect x="40" y="304" width="192" height="38" rx="4" fill="#ffffff"/>
  <text x="50" y="330" fill="#1a1a1a" font-size="13" font-weight="500">稍后阅读清单</text>
  <rect x="260" y="304" width="252" height="38" rx="4" fill="#f9fafb"/>
  <text x="386" y="330" text-anchor="middle" fill="#d1d5db" font-size="14">—</text>
  <rect x="540" y="304" width="172" height="38" rx="4" fill="#dcfce7"/>
  <text x="626" y="330" text-anchor="middle" fill="#16a34a" font-size="14" font-weight="600">✓</text>
  <rect x="740" y="304" width="192" height="38" rx="4" fill="#dcfce7"/>
  <text x="836" y="330" text-anchor="middle" fill="#16a34a" font-size="14" font-weight="600">✓</text>
  <rect x="40" y="346" width="192" height="38" rx="4" fill="#f8f6f3"/>
  <text x="50" y="372" fill="#1a1a1a" font-size="13" font-weight="500">会话保存/恢复</text>
  <rect x="260" y="346" width="252" height="38" rx="4" fill="#dcfce7"/>
  <text x="386" y="372" text-anchor="middle" fill="#16a34a" font-size="14" font-weight="600">✓</text>
  <rect x="540" y="346" width="172" height="38" rx="4" fill="#f9fafb"/>
  <text x="626" y="372" text-anchor="middle" fill="#d1d5db" font-size="14">—</text>
  <rect x="740" y="346" width="192" height="38" rx="4" fill="#dcfce7"/>
  <text x="836" y="372" text-anchor="middle" fill="#16a34a" font-size="14" font-weight="600">✓</text>
  <rect x="40" y="388" width="192" height="38" rx="4" fill="#ffffff"/>
  <text x="50" y="414" fill="#1a1a1a" font-size="13" font-weight="500">重复标签检测</text>
  <rect x="260" y="388" width="252" height="38" rx="4" fill="#f9fafb"/>
  <text x="386" y="414" text-anchor="middle" fill="#d1d5db" font-size="14">—</text>
  <rect x="540" y="388" width="172" height="38" rx="4" fill="#dcfce7"/>
  <text x="626" y="414" text-anchor="middle" fill="#16a34a" font-size="14" font-weight="600">✓</text>
  <rect x="740" y="388" width="192" height="38" rx="4" fill="#dcfce7"/>
  <text x="836" y="414" text-anchor="middle" fill="#16a34a" font-size="14" font-weight="600">✓</text>
  <rect x="40" y="430" width="192" height="38" rx="4" fill="#f8f6f3"/>
  <text x="50" y="456" fill="#1a1a1a" font-size="13" font-weight="500">导入/导出</text>
  <rect x="260" y="430" width="252" height="38" rx="4" fill="#dcfce7"/>
  <text x="386" y="456" text-anchor="middle" fill="#16a34a" font-size="14" font-weight="600">✓</text>
  <rect x="540" y="430" width="172" height="38" rx="4" fill="#f9fafb"/>
  <text x="626" y="456" text-anchor="middle" fill="#d1d5db" font-size="14">—</text>
  <rect x="740" y="430" width="192" height="38" rx="4" fill="#dcfce7"/>
  <text x="836" y="456" text-anchor="middle" fill="#16a34a" font-size="14" font-weight="600">✓</text>
  <rect x="40" y="472" width="192" height="38" rx="4" fill="#ffffff"/>
  <text x="50" y="498" fill="#1a1a1a" font-size="13" font-weight="500">关闭动画/音效</text>
  <rect x="260" y="472" width="252" height="38" rx="4" fill="#f9fafb"/>
  <text x="386" y="498" text-anchor="middle" fill="#d1d5db" font-size="14">—</text>
  <rect x="540" y="472" width="172" height="38" rx="4" fill="#dcfce7"/>
  <text x="626" y="498" text-anchor="middle" fill="#16a34a" font-size="14" font-weight="600">✓</text>
  <rect x="740" y="472" width="192" height="38" rx="4" fill="#dcfce7"/>
  <text x="836" y="498" text-anchor="middle" fill="#16a34a" font-size="14" font-weight="600">✓</text>
  <rect x="40" y="514" width="192" height="38" rx="4" fill="#f8f6f3"/>
  <text x="50" y="540" fill="#1a1a1a" font-size="13" font-weight="500">竖向/横向切换</text>
  <rect x="260" y="514" width="252" height="38" rx="4" fill="#f9fafb"/>
  <text x="386" y="540" text-anchor="middle" fill="#d1d5db" font-size="14">—</text>
  <rect x="540" y="514" width="172" height="38" rx="4" fill="#f9fafb"/>
  <text x="626" y="540" text-anchor="middle" fill="#d1d5db" font-size="14">—</text>
  <rect x="740" y="514" width="192" height="38" rx="4" fill="#fef9c3"/>
  <text x="836" y="540" text-anchor="middle" fill="#ca8a04" font-size="12" font-weight="700">✓ NEW</text>
  <rect x="40" y="556" width="192" height="38" rx="4" fill="#ffffff"/>
  <text x="50" y="582" fill="#1a1a1a" font-size="13" font-weight="500">拖拽排序</text>
  <rect x="260" y="556" width="252" height="38" rx="4" fill="#dcfce7"/>
  <text x="386" y="582" text-anchor="middle" fill="#16a34a" font-size="14" font-weight="600">✓</text>
  <rect x="540" y="556" width="172" height="38" rx="4" fill="#f9fafb"/>
  <text x="626" y="582" text-anchor="middle" fill="#d1d5db" font-size="14">—</text>
  <rect x="740" y="556" width="192" height="38" rx="4" fill="#dcfce7"/>
  <text x="836" y="582" text-anchor="middle" fill="#16a34a" font-size="14" font-weight="600">✓</text>
  <rect x="40" y="598" width="192" height="38" rx="4" fill="#f8f6f3"/>
  <text x="50" y="624" fill="#1a1a1a" font-size="13" font-weight="500">纯本地存储</text>
  <rect x="260" y="598" width="252" height="38" rx="4" fill="#dcfce7"/>
  <text x="386" y="624" text-anchor="middle" fill="#16a34a" font-size="14" font-weight="600">✓</text>
  <rect x="540" y="598" width="172" height="38" rx="4" fill="#dcfce7"/>
  <text x="626" y="624" text-anchor="middle" fill="#16a34a" font-size="14" font-weight="600">✓</text>
  <rect x="740" y="598" width="192" height="38" rx="4" fill="#dcfce7"/>
  <text x="836" y="624" text-anchor="middle" fill="#16a34a" font-size="14" font-weight="600">✓</text>
  <text x="480" y="654" text-anchor="middle" fill="#6a6a6a" font-size="12">SmartTab = OneTab 一键合并 + Tab Out 智能分类 + 竖向排布 + 关键词总结</text>
</svg>