<svg xmlns="http://www.w3.org/2000/svg" viewBox="0 0 960 800" width="960" height="800">
  <style>
    text { font-family: -apple-system, BlinkMacSystemFont, 'Segoe UI', 'Helvetica Neue', Arial, 'PingFang SC', sans-serif; }
  </style>
  <defs>
    <marker id="arrow" markerWidth="8" markerHeight="8" refX="7" refY="4" orient="auto">
      <polygon points="0 0, 8 4, 0 8" fill="#5a5a5a"/>
    </marker>
    <marker id="arrow-blue" markerWidth="8" markerHeight="8" refX="7" refY="4" orient="auto">
      <polygon points="0 0, 8 4, 0 8" fill="#2563eb"/>
    </marker>
    <filter id="shadow">
      <feDropShadow dx="0" dy="2" stdDeviation="4" flood-color="#00000010"/>
    </filter>
  </defs>
  <rect width="960" height="800" fill="#f8f6f3"/>
  <text x="480" y="36" text-anchor="middle" fill="#1a1a1a" font-size="20" font-weight="700">SmartTab — Product Architecture</text>
  <text x="480" y="56" text-anchor="middle" fill="#6a6a6a" font-size="13">OneTab + Tab Out 融合架构</text>
  <rect x="50" y="75" width="860" height="70" rx="10" fill="none" stroke="#a8c5e6" stroke-width="1.5" stroke-dasharray="6,3"/>
  <text x="68" y="97" fill="#6a6a6a" font-size="12" font-weight="600">BROWSER LAYER</text>
  <rect x="120" y="90" width="200" height="44" rx="10" fill="#a8c5e6" stroke="#4a4a4a" stroke-width="2" filter="url(#shadow)"/>
  <text x="220" y="117" text-anchor="middle" fill="#1a1a1a" font-size="14" font-weight="600">Extension Icon Click</text>
  <rect x="380" y="90" width="200" height="44" rx="10" fill="#a8c5e6" stroke="#4a4a4a" stroke-width="2" filter="url(#shadow)"/>
  <text x="480" y="117" text-anchor="middle" fill="#1a1a1a" font-size="14" font-weight="600">Keyboard Shortcut</text>
  <rect x="640" y="90" width="200" height="44" rx="10" fill="#a8c5e6" stroke="#4a4a4a" stroke-width="2" filter="url(#shadow)"/>
  <text x="740" y="117" text-anchor="middle" fill="#1a1a1a" font-size="14" font-weight="600">New Tab Override</text>
  <rect x="50" y="170" width="860" height="220" rx="10" fill="none" stroke="#9dd4c7" stroke-width="1.5" stroke-dasharray="6,3"/>
  <text x="68" y="192" fill="#6a6a6a" font-size="12" font-weight="600">CORE ENGINE</text>
  <rect x="80" y="205" width="160" height="65" rx="12" fill="#9dd4c7" stroke="#4a4a4a" stroke-width="2.5" filter="url(#shadow)"/>
  <text x="160" y="232" text-anchor="middle" fill="#1a1a1a" font-size="14" font-weight="600">Tab Collector</text>
  <text x="160" y="252" text-anchor="middle" fill="#6a6a6a" font-size="11">chrome.tabs.query()</text>
  <rect x="280" y="205" width="160" height="65" rx="12" fill="#9dd4c7" stroke="#4a4a4a" stroke-width="2.5" filter="url(#shadow)"/>
  <text x="360" y="232" text-anchor="middle" fill="#1a1a1a" font-size="14" font-weight="600">Smart Classifier</text>
  <text x="360" y="252" text-anchor="middle" fill="#6a6a6a" font-size="11">domain + path rules</text>
  <rect x="480" y="205" width="160" height="65" rx="12" fill="#f4e4c1" stroke="#4a4a4a" stroke-width="2.5" filter="url(#shadow)"/>
  <text x="560" y="232" text-anchor="middle" fill="#1a1a1a" font-size="14" font-weight="600">Summarizer</text>
  <text x="560" y="252" text-anchor="middle" fill="#6a6a6a" font-size="11">title → keywords</text>
  <rect x="680" y="205" width="160" height="65" rx="12" fill="#9dd4c7" stroke="#4a4a4a" stroke-width="2.5" filter="url(#shadow)"/>
  <text x="760" y="232" text-anchor="middle" fill="#1a1a1a" font-size="14" font-weight="600">Session Manager</text>
  <text x="760" y="252" text-anchor="middle" fill="#6a6a6a" font-size="11">save / restore</text>
  <line x1="240" y1="237" x2="278" y2="237" stroke="#5a5a5a" stroke-width="2" marker-end="url(#arrow)"/>
  <line x1="440" y1="237" x2="478" y2="237" stroke="#5a5a5a" stroke-width="2" marker-end="url(#arrow)"/>
  <line x1="640" y1="237" x2="678" y2="237" stroke="#5a5a5a" stroke-width="2" marker-end="url(#arrow)"/>
  <rect x="180" y="300" width="160" height="55" rx="12" fill="#9dd4c7" stroke="#4a4a4a" stroke-width="2.5" filter="url(#shadow)"/>
  <text x="260" y="322" text-anchor="middle" fill="#1a1a1a" font-size="14" font-weight="600">Dedup Engine</text>
  <text x="260" y="340" text-anchor="middle" fill="#6a6a6a" font-size="11">URL match + merge</text>
  <rect x="400" y="300" width="180" height="55" rx="12" fill="#f4e4c1" stroke="#4a4a4a" stroke-width="2.5" filter="url(#shadow)"/>
  <text x="490" y="322" text-anchor="middle" fill="#1a1a1a" font-size="14" font-weight="600">Layout Engine</text>
  <text x="490" y="340" text-anchor="middle" fill="#6a6a6a" font-size="11">vertical / horizontal toggle</text>
  <rect x="650" y="300" width="160" height="55" rx="12" fill="#e8e6e3" stroke="#4a4a4a" stroke-width="2.5" filter="url(#shadow)"/>
  <text x="730" y="322" text-anchor="middle" fill="#1a1a1a" font-size="14" font-weight="600">Import / Export</text>
  <text x="730" y="340" text-anchor="middle" fill="#6a6a6a" font-size="11">JSON backup</text>
  <rect x="50" y="415" width="860" height="80" rx="10" fill="none" stroke="#e8e6e3" stroke-width="1.5" stroke-dasharray="6,3"/>
  <text x="68" y="437" fill="#6a6a6a" font-size="12" font-weight="600">STORAGE</text>
  <rect x="180" y="430" width="240" height="50" rx="10" fill="#e8e6e3" stroke="#4a4a4a" stroke-width="2" filter="url(#shadow)"/>
  <text x="300" y="452" text-anchor="middle" fill="#1a1a1a" font-size="14" font-weight="600">chrome.storage.local</text>
  <text x="300" y="469" text-anchor="middle" fill="#6a6a6a" font-size="11">sessions, settings, groups</text>
  <rect x="500" y="430" width="280" height="50" rx="10" fill="#e8e6e3" stroke="#4a4a4a" stroke-width="2" filter="url(#shadow)"/>
  <text x="640" y="452" text-anchor="middle" fill="#1a1a1a" font-size="14" font-weight="600">Data Schema</text>
  <text x="640" y="469" text-anchor="middle" fill="#6a6a6a" font-size="11">Session{groups{tabs{url, title, keywords}}}</text>
  <path d="M 260 355 L 260 380 L 300 380 L 300 428" stroke="#5a5a5a" stroke-width="1.5" fill="none" marker-end="url(#arrow)" stroke-dasharray="5,3"/>
  <path d="M 490 355 L 490 380 L 640 380 L 640 428" stroke="#5a5a5a" stroke-width="1.5" fill="none" marker-end="url(#arrow)" stroke-dasharray="5,3"/>
  <rect x="50" y="520" width="860" height="245" rx="10" fill="none" stroke="#a8c5e6" stroke-width="1.5" stroke-dasharray="6,3"/>
  <text x="68" y="542" fill="#6a6a6a" font-size="12" font-weight="600">UI LAYER (New Tab Page)</text>
  <rect x="80" y="555" width="200" height="195" rx="12" fill="#ffffff" stroke="#4a4a4a" stroke-width="2.5" filter="url(#shadow)"/>
  <text x="180" y="578" text-anchor="middle" fill="#1a1a1a" font-size="14" font-weight="600">Vertical Tab List</text>
  <text x="180" y="594" text-anchor="middle" fill="#ca8a04" font-size="11" font-weight="600">NEW</text>
  <rect x="95" y="605" width="170" height="22" rx="4" fill="#eff6ff"/>
  <text x="103" y="620" fill="#2563eb" font-size="10">● GitHub</text>
  <rect x="95" y="632" width="170" height="22" rx="4" fill="#eff6ff"/>
  <text x="103" y="647" fill="#2563eb" font-size="10">  feat: add auth module</text>
  <rect x="95" y="659" width="170" height="22" rx="4" fill="#f0fdf4"/>
  <text x="103" y="674" fill="#16a34a" font-size="10">● Stack Overflow</text>
  <rect x="95" y="686" width="170" height="22" rx="4" fill="#f0fdf4"/>
  <text x="103" y="701" fill="#16a34a" font-size="10">  fix CORS error</text>
  <rect x="95" y="713" width="170" height="22" rx="4" fill="#fef3c7"/>
  <text x="103" y="728" fill="#ca8a04" font-size="10">● Gmail (3 unread)</text>
  <rect x="310" y="555" width="260" height="195" rx="12" fill="#ffffff" stroke="#4a4a4a" stroke-width="2.5" filter="url(#shadow)"/>
  <text x="440" y="578" text-anchor="middle" fill="#1a1a1a" font-size="14" font-weight="600">Auto-Grouped View</text>
  <text x="440" y="594" text-anchor="middle" fill="#6a6a6a" font-size="11">按域名分类 + 关键词摘要</text>
  <rect x="322" y="605" width="236" height="60" rx="6" fill="#eff6ff" stroke="#bfdbfe" stroke-width="1"/>
  <text x="332" y="622" fill="#2563eb" font-size="12" font-weight="600">GitHub (3 tabs)</text>
  <text x="332" y="638" fill="#6a6a6a" font-size="10">• feat: add auth module</text>
  <text x="332" y="652" fill="#6a6a6a" font-size="10">• fix: memory leak in parser</text>
  <rect x="322" y="672" width="236" height="60" rx="6" fill="#f0fdf4" stroke="#bbf7d0" stroke-width="1"/>
  <text x="332" y="689" fill="#16a34a" font-size="12" font-weight="600">Documentation (2 tabs)</text>
  <text x="332" y="705" fill="#6a6a6a" font-size="10">• React hooks guide</text>
  <text x="332" y="719" fill="#6a6a6a" font-size="10">• Tailwind config ref</text>
  <rect x="610" y="555" width="260" height="195" rx="12" fill="#ffffff" stroke="#4a4a4a" stroke-width="2.5" filter="url(#shadow)"/>
  <text x="740" y="578" text-anchor="middle" fill="#1a1a1a" font-size="14" font-weight="600">Quick Actions</text>
  <rect x="625" y="595" width="230" height="28" rx="6" fill="#9dd4c7" stroke="#4a4a4a" stroke-width="1.5"/>
  <text x="740" y="614" text-anchor="middle" fill="#1a1a1a" font-size="12" font-weight="500">🔄 Restore All Tabs</text>
  <rect x="625" y="631" width="230" height="28" rx="6" fill="#a8c5e6" stroke="#4a4a4a" stroke-width="1.5"/>
  <text x="740" y="650" text-anchor="middle" fill="#1a1a1a" font-size="12" font-weight="500">📑 Save Session</text>
  <rect x="625" y="667" width="230" height="28" rx="6" fill="#f4e4c1" stroke="#4a4a4a" stroke-width="1.5"/>
  <text x="740" y="686" text-anchor="middle" fill="#1a1a1a" font-size="12" font-weight="500">📐 Toggle V/H Layout</text>
  <rect x="625" y="703" width="230" height="28" rx="6" fill="#e8e6e3" stroke="#4a4a4a" stroke-width="1.5"/>
  <text x="740" y="722" text-anchor="middle" fill="#1a1a1a" font-size="12" font-weight="500">🗑 Close Duplicates</text>
  <line x1="220" y1="134" x2="160" y2="203" stroke="#5a5a5a" stroke-width="1.5" marker-end="url(#arrow)"/>
  <line x1="480" y1="134" x2="360" y2="203" stroke="#5a5a5a" stroke-width="1.5" marker-end="url(#arrow)"/>
  <line x1="740" y1="134" x2="760" y2="203" stroke="#5a5a5a" stroke-width="1.5" marker-end="url(#arrow)"/>
  <path d="M 160 270 L 160 490 L 180 490 L 180 553" stroke="#5a5a5a" stroke-width="2" fill="none" marker-end="url(#arrow)"/>
  <path d="M 490 355 L 490 490 L 440 490 L 440 553" stroke="#5a5a5a" stroke-width="2" fill="none" marker-end="url(#arrow)"/>
  <rect x="100" y="487" width="80" height="16" rx="3" fill="#f8f6f3"/>
  <text x="140" y="499" text-anchor="middle" fill="#5a5a5a" font-size="11">tab data</text>
  <rect x="435" y="487" width="80" height="16" rx="3" fill="#f8f6f3"/>
  <text x="475" y="499" text-anchor="middle" fill="#5a5a5a" font-size="11">groups</text>
  <g transform="translate(80, 785)">
    <rect width="12" height="12" rx="3" fill="#9dd4c7"/>
    <text x="18" y="11" fill="#6a6a6a" font-size="11">From Tab Out</text>
    <rect x="120" width="12" height="12" rx="3" fill="#a8c5e6"/>
    <text x="138" y="11" fill="#6a6a6a" font-size="11">From OneTab</text>
    <rect x="240" width="12" height="12" rx="3" fill="#f4e4c1"/>
    <text x="258" y="11" fill="#6a6a6a" font-size="11">New Feature</text>
    <rect x="370" width="12" height="12" rx="3" fill="#e8e6e3"/>
    <text x="388" y="11" fill="#6a6a6a" font-size="11">Infrastructure</text>
  </g>
</svg>